<svg width="24" height="21" viewBox="0 0 24 21" fill="none" xmlns="http://www.w3.org/2000/svg">
<path d="M16 3.48242H8C5.79086 3.48242 4 5.04156 4 6.96485V13.9297C4 15.853 5.79086 17.4121 8 17.4121H16C18.2091 17.4121 20 15.853 20 13.9297V6.96485C20 5.04156 18.2091 3.48242 16 3.48242Z" stroke="#7210FF" stroke-width="1.5" stroke-linecap="round" stroke-linejoin="round"/>
<path d="M12 13.0591C13.6569 13.0591 15 11.8897 15 10.4473C15 9.0048 13.6569 7.83545 12 7.83545C10.3431 7.83545 9 9.0048 9 10.4473C9 11.8897 10.3431 13.0591 12 13.0591Z" stroke="#7210FF" stroke-width="1.5" stroke-linecap="round" stroke-linejoin="round"/>
<path d="M16.5 6.52954V6.53054" stroke="#7210FF" stroke-width="1.5" stroke-linecap="round" stroke-linejoin="round"/>
</svg>
