<svg width="24" height="24" viewBox="0 0 24 24" fill="none" xmlns="http://www.w3.org/2000/svg">
<g id="ic_address" clip-path="url(#clip0_3429_14622)">
<path id="Vector" d="M12.0008 23.7373C6.05703 23.7373 0.0195312 22.4623 0.0195312 20.0248C0.0195312 17.8498 4.66953 16.9498 6.65703 16.6686H6.73203C7.01328 16.6686 7.25703 16.8748 7.29453 17.1561C7.31328 17.3061 7.27578 17.4561 7.18203 17.5686C7.08828 17.6811 6.95703 17.7748 6.80703 17.7936C2.66328 18.3936 1.12578 19.4811 1.12578 20.0436C1.12578 21.0936 5.36328 22.6311 11.982 22.6311C18.6008 22.6311 22.8383 21.0936 22.8383 20.0436C22.8383 19.4811 21.282 18.3936 17.1008 17.7936C16.9508 17.7748 16.8195 17.6998 16.7258 17.5686C16.632 17.4561 16.5945 17.3061 16.6133 17.1561C16.6508 16.8748 16.8945 16.6686 17.1758 16.6686H17.2508C19.257 16.9498 23.9445 17.8498 23.9445 20.0248C23.9633 22.4436 17.9445 23.7373 12.0008 23.7373ZM11.607 19.7623C11.3258 19.4998 4.83828 13.3686 4.83828 7.3498C4.83828 3.4123 8.04453 0.206055 11.982 0.206055C15.9195 0.206055 19.1258 3.4123 19.1258 7.3498C19.1258 13.1998 12.6383 19.4811 12.357 19.7436L11.982 20.1186L11.607 19.7623ZM12.0008 1.33105C8.68203 1.33105 5.98203 4.03105 5.98203 7.3498C5.98203 12.0561 10.5758 17.0998 12.0008 18.5436C13.4445 17.0623 18.0383 11.9248 18.0383 7.3498C18.0195 4.0498 15.3195 1.33105 12.0008 1.33105ZM12.0008 10.5373C10.1258 10.5373 8.60703 9.01855 8.60703 7.14355C8.60703 5.26855 10.1258 3.7498 12.0008 3.7498C13.8758 3.7498 15.3945 5.26855 15.3945 7.14355C15.3945 9.01855 13.8758 10.5373 12.0008 10.5373ZM12.0008 4.8748C10.7445 4.8748 9.73203 5.8873 9.73203 7.14355C9.73203 8.39981 10.7445 9.4123 12.0008 9.4123C13.257 9.4123 14.2695 8.39981 14.2695 7.14355C14.2695 5.8873 13.2383 4.8748 12.0008 4.8748Z" fill="#989898"/>
</g>
<defs>
<clipPath id="clip0_3429_14622">
<rect width="24" height="24" fill="white"/>
</clipPath>
</defs>
</svg>
