<svg width="24" height="21" viewBox="0 0 24 21" fill="none" xmlns="http://www.w3.org/2000/svg">
<path d="M18 3.48242H6C4.89543 3.48242 4 4.26199 4 5.22364V15.6709C4 16.6326 4.89543 17.4121 6 17.4121H18C19.1046 17.4121 20 16.6326 20 15.6709V5.22364C20 4.26199 19.1046 3.48242 18 3.48242Z" stroke="#7210FF" stroke-width="1.5" stroke-linecap="round" stroke-linejoin="round"/>
<path d="M8 9.57666V13.9297" stroke="#7210FF" stroke-width="1.5" stroke-linecap="round" stroke-linejoin="round"/>
<path d="M8 6.96484V6.97372" stroke="#7210FF" stroke-width="1.5" stroke-linecap="round" stroke-linejoin="round"/>
<path d="M12 13.9297V9.57666" stroke="#7210FF" stroke-width="1.5" stroke-linecap="round" stroke-linejoin="round"/>
<path d="M16 13.9297V11.3179C16 10.8561 15.7893 10.4132 15.4142 10.0867C15.0391 9.76011 14.5304 9.57666 14 9.57666C13.4696 9.57666 12.9609 9.76011 12.5858 10.0867C12.2107 10.4132 12 10.8561 12 11.3179" stroke="#7210FF" stroke-width="1.5" stroke-linecap="round" stroke-linejoin="round"/>
</svg>
