<svg width="20" height="20" viewBox="0 0 20 20" fill="none" xmlns="http://www.w3.org/2000/svg">
<path d="M9.99917 11.8091C8.22417 11.8091 6.77417 10.3674 6.77417 8.5841C6.77417 6.80076 8.22417 5.36743 9.99917 5.36743C11.7742 5.36743 13.2242 6.8091 13.2242 8.59243C13.2242 10.3758 11.7742 11.8091 9.99917 11.8091ZM9.99917 6.61743C8.91584 6.61743 8.02417 7.50076 8.02417 8.59243C8.02417 9.6841 8.9075 10.5674 9.99917 10.5674C11.0908 10.5674 11.9742 9.6841 11.9742 8.59243C11.9742 7.50076 11.0825 6.61743 9.99917 6.61743Z" fill="#989898"/>
<path d="M10.0017 18.9667C8.71786 18.9643 7.48469 18.4657 6.56001 17.5751C4.10167 15.2084 1.38501 11.4334 2.41001 6.94175C3.33501 2.86675 6.89334 1.04175 10.0017 1.04175H10.01C13.1183 1.04175 16.6767 2.86675 17.6017 6.95008C18.6183 11.4417 15.9017 15.2084 13.4433 17.5751C12.5187 18.4657 11.2855 18.9643 10.0017 18.9667ZM10.0017 2.29175C7.57667 2.29175 4.46001 3.58341 3.63501 7.21675C2.73501 11.1417 5.20167 14.5251 7.43501 16.6667C8.12336 17.3362 9.04566 17.7107 10.0058 17.7107C10.966 17.7107 11.8883 17.3362 12.5767 16.6667C14.8017 14.5251 17.2683 11.1417 16.385 7.21675C15.5517 3.58341 12.4267 2.29175 10.0017 2.29175Z" fill="#989898"/>
</svg>
