<svg width="56" height="56" viewBox="0 0 56 56" fill="none" xmlns="http://www.w3.org/2000/svg">
<path opacity="0.4" d="M50.5167 23.4034C49.6067 22.0968 47.9967 21.3501 46.1534 21.3501H36.5867C35.9567 21.3501 35.3734 21.0934 34.9767 20.6268C34.5567 20.1601 34.3934 19.5068 34.4867 18.8301L35.6767 11.1768C36.1901 8.8901 34.6734 6.32344 32.3867 5.55344C30.2634 4.7601 27.7667 5.83344 26.7634 7.3501L16.9167 21.9801L16.6367 22.4468V43.0734L16.9867 43.4234L24.3834 49.1401C25.3634 50.1201 27.5801 50.6568 29.1434 50.6568H38.2434C41.3701 50.6568 44.52 48.3001 45.22 45.4301L50.9601 27.9534C51.5667 26.2968 51.4034 24.6868 50.5167 23.4034Z" fill="#7210FF"/>
<path d="M12.156 14.8867H9.75268C6.13602 14.8867 4.66602 16.2867 4.66602 19.7401V43.2134C4.66602 46.6667 6.13602 48.0667 9.75268 48.0667H12.156C15.7727 48.0667 17.2427 46.6667 17.2427 43.2134V19.7401C17.2427 16.2867 15.7727 14.8867 12.156 14.8867Z" fill="#7210FF"/>
</svg>
