<svg width="16" height="17" viewBox="0 0 16 17" fill="none" xmlns="http://www.w3.org/2000/svg">
<path d="M1.33343 15.6667C1.20009 15.6667 1.07341 15.6133 0.980073 15.52C0.853406 15.3933 0.800105 15.2067 0.846772 15.0333L1.68678 11.8933C1.12678 10.8533 0.833426 9.67999 0.833426 8.49333C0.833426 4.53999 4.04676 1.32666 8.00009 1.32666C11.9534 1.32666 15.1668 4.53999 15.1668 8.49333C15.1668 12.4467 11.9534 15.66 8.00009 15.66C6.79343 15.66 5.61344 15.36 4.56011 14.7867L1.46677 15.6467C1.4201 15.66 1.38009 15.6667 1.33343 15.6667ZM4.62676 13.7533C4.71343 13.7533 4.8001 13.78 4.8801 13.82C5.8201 14.3733 6.90009 14.6667 8.00009 14.6667C11.4001 14.6667 14.1668 11.9 14.1668 8.5C14.1668 5.1 11.4001 2.33333 8.00009 2.33333C4.60009 2.33333 1.83343 5.1 1.83343 8.5C1.83343 9.58667 2.12009 10.6467 2.66009 11.58C2.72675 11.6933 2.74676 11.8333 2.71343 11.96L2.04676 14.4533L4.50009 13.7733C4.54009 13.76 4.58676 13.7533 4.62676 13.7533Z" fill="#7210FF"/>
<path d="M9.82682 12.34C9.41349 12.34 8.98683 12.2467 8.54016 12.0534C8.12016 11.8734 7.70016 11.6334 7.2935 11.3334C6.8935 11.04 6.50018 10.7067 6.14018 10.3467C5.78018 9.98002 5.44682 9.59337 5.15348 9.19337C4.85348 8.77337 4.61348 8.36002 4.44014 7.95336C4.25348 7.51336 4.16016 7.08003 4.16016 6.66669C4.16016 6.37336 4.21348 6.09336 4.31348 5.83336C4.42014 5.56003 4.59348 5.31336 4.82015 5.10002C5.24682 4.68002 5.86018 4.5267 6.34684 4.76004C6.51351 4.83337 6.65351 4.95337 6.76017 5.11337L7.53349 6.20002C7.61349 6.30669 7.67351 6.42002 7.72017 6.53335C7.77351 6.66669 7.80684 6.80004 7.80684 6.9267C7.80684 7.10004 7.76016 7.27337 7.66683 7.4267C7.60683 7.5267 7.52015 7.6467 7.40682 7.76004L7.32015 7.85336C7.36015 7.90669 7.40681 7.97335 7.48014 8.05335C7.62014 8.21335 7.77348 8.38669 7.94015 8.55335C8.10681 8.71335 8.27348 8.87335 8.44015 9.01335C8.52014 9.08002 8.58684 9.13336 8.64018 9.16669L8.73348 9.07335C8.85348 8.95335 8.97351 8.86004 9.09351 8.80004C9.31351 8.66004 9.65349 8.6267 9.95349 8.75336C10.0602 8.79336 10.1668 8.85336 10.2802 8.93336L11.3935 9.72002C11.5468 9.82669 11.6668 9.97336 11.7468 10.14C11.8135 10.3067 11.8402 10.4534 11.8402 10.6067C11.8402 10.8067 11.7935 11 11.7068 11.1867C11.6202 11.36 11.5201 11.5134 11.4001 11.6534C11.1868 11.8867 10.9402 12.06 10.6735 12.1734C10.4068 12.2867 10.1202 12.34 9.82682 12.34ZM5.86015 5.66002C5.82015 5.66002 5.68685 5.66002 5.52018 5.82669C5.39352 5.94669 5.30683 6.07337 5.24683 6.21337C5.18683 6.35337 5.16016 6.51337 5.16016 6.67337C5.16016 6.95337 5.22681 7.25335 5.36015 7.57335C5.50015 7.90668 5.70683 8.26004 5.96016 8.61337C6.22016 8.9667 6.5135 9.32003 6.84017 9.6467C7.16684 9.9667 7.51349 10.2667 7.87349 10.5334C8.22016 10.7867 8.57351 10.9867 8.92684 11.14C9.43351 11.36 9.90015 11.4134 10.2802 11.2534C10.4135 11.2 10.5335 11.1067 10.6535 10.9867C10.7135 10.92 10.7602 10.8534 10.8002 10.7667C10.8202 10.72 10.8335 10.6667 10.8335 10.62C10.8335 10.6067 10.8335 10.5867 10.8135 10.5467L9.70015 9.77336C9.65349 9.74003 9.60681 9.71335 9.56681 9.70002C9.54015 9.71335 9.50017 9.73336 9.42684 9.80669L9.1735 10.06C8.98017 10.2534 8.67351 10.3067 8.42684 10.22L8.30684 10.1667C8.15351 10.0867 7.98016 9.9667 7.78682 9.80004C7.60016 9.64004 7.42018 9.47336 7.22685 9.28669C7.04018 9.09336 6.8735 8.91336 6.7135 8.72669C6.54017 8.52003 6.42017 8.35337 6.34017 8.21337L6.26685 8.04003C6.24685 7.97336 6.24015 7.90003 6.24015 7.83336C6.24015 7.64669 6.30685 7.48002 6.43351 7.34669L6.68685 7.0867C6.76018 7.01336 6.78684 6.97337 6.80017 6.9467C6.78017 6.90004 6.75351 6.86003 6.72017 6.81336L5.94014 5.71337L5.86015 5.66002Z" fill="#7210FF"/>
</svg>
