<svg width="1024" height="1024" viewBox="0 0 1024 1024" fill="none" xmlns="http://www.w3.org/2000/svg">
<path d="M809.684 651.254C806.847 648.178 803.935 645.162 800.993 642.175V518.082C788.106 507.882 764.93 489.53 745.248 473.955V441.879C726.985 427.423 687.981 396.542 667.687 380.474V246.57L508.502 339.349L349.316 246.57V380.474C329.023 396.542 290.018 427.423 271.755 441.879V467.459C252.715 482.541 231.047 499.684 218.773 509.406V639.92C218.011 640.652 217.234 641.369 216.488 642.1C207.842 650.523 212.366 665.336 224.268 667.397C224.477 667.427 224.671 667.472 224.88 667.501C229.524 668.278 234.213 666.755 237.633 663.529C289.809 614.31 361.024 577.127 435.912 555.817C482.877 542.452 532.618 542.213 579.821 554.712C655.472 574.752 725.149 609.591 777.817 661.319C750.057 689.244 714.516 713.794 673.077 733.699C668.15 736.074 663.849 742.45 663.998 747.916C664.327 758.757 675.81 765.701 685.621 760.803C736.035 735.596 827.618 679.896 809.714 651.254H809.684ZM248.34 523.562L271.725 505.045V595.838C264.258 600.96 256.314 607.038 248.34 613.578V523.547V523.562ZM301.322 577.276V456.035L349.287 418.06V543.244V506.285V553.174C349.481 553.13 349.69 553.085 349.884 553.025C333.129 560.267 316.897 568.331 301.322 577.261V577.276ZM379.436 541.303V504.239V527.923V295.714L479.158 356.447L479.905 356.895L439.885 380.22V522.98C426.938 526.175 414.125 529.759 401.522 533.761C394.085 536.121 386.723 538.644 379.436 541.288V541.303ZM577.074 522.98C572.997 521.979 568.905 521.038 564.799 520.113V426.737L534.798 450.495V514.065C526.063 512.512 517.282 511.123 508.487 509.928C495.704 508.181 482.877 506.807 470.049 505.762V398.677L511.369 372.545L537.815 356.432L637.537 295.699V527.908V504.224V541.288C630.25 538.63 622.888 536.121 615.451 533.761C602.848 529.759 590.035 526.175 577.089 522.98H577.074ZM667.672 553.189V506.3V543.259V418.075L715.636 456.05V577.291C700.061 568.376 683.829 560.297 667.074 553.055C667.269 553.1 667.478 553.144 667.672 553.204V553.189ZM745.233 511.556L771.381 532.253V615.37C762.974 608.531 754.253 602.035 745.233 595.853V511.556Z" fill="#32009A"/>
<path fill-rule="evenodd" clip-rule="evenodd" d="M511.717 723.473C537.641 723.473 558.427 702.432 558.427 676.762C558.427 671.864 557.666 667.131 556.262 662.681C552.021 669.52 544.465 674.09 535.789 674.09C522.499 674.09 511.717 663.308 511.717 650.018C511.717 642.267 515.376 635.383 521.05 630.978C518.034 630.366 514.913 630.052 511.717 630.052C485.913 630.052 465.007 650.973 465.007 676.762C465.007 702.552 485.928 723.473 511.717 723.473Z" fill="#F28705"/>
<path fill-rule="evenodd" clip-rule="evenodd" d="M586.433 711.155C579.265 707.915 570.872 710.185 566.183 716.501C565.377 717.621 564.526 718.711 563.66 719.772C563.451 720.026 563.242 720.264 563.032 720.518C562.346 721.34 561.629 722.146 560.897 722.937C560.673 723.176 560.449 723.415 560.21 723.654C559.374 724.52 558.538 725.372 557.657 726.193C557.552 726.297 557.448 726.402 557.343 726.506C555.223 728.478 552.983 730.299 550.638 731.972C550.623 731.972 550.608 732.002 550.593 732.002C549.444 732.823 548.279 733.585 547.084 734.331C547.009 734.376 546.92 734.436 546.845 734.481C543.216 736.721 539.349 738.617 535.332 740.125C535.033 740.245 534.72 740.349 534.406 740.454C533.465 740.797 532.509 741.111 531.539 741.41C531.061 741.559 530.568 741.708 530.075 741.843C529.284 742.067 528.478 742.276 527.671 742.47C527.089 742.604 526.521 742.754 525.924 742.888C525.177 743.052 524.416 743.187 523.654 743.321C522.519 743.53 521.384 743.694 520.235 743.844C519.503 743.933 518.771 744.038 518.039 744.112C517.442 744.172 516.845 744.202 516.247 744.247C515.396 744.306 514.53 744.351 513.664 744.381C513.186 744.381 512.693 744.411 512.216 744.411C510.976 744.411 509.722 744.411 508.467 744.336C508.363 744.336 508.243 744.336 508.139 744.336C506.601 744.247 505.048 744.127 503.495 743.933C503.48 743.933 503.45 743.933 503.435 743.933C475.062 740.439 452.454 719.04 446.256 692.191C446.122 691.608 445.988 691.026 445.868 690.443C445.838 690.279 445.808 690.115 445.779 689.951C445.151 686.621 444.748 683.216 444.614 679.707C444.614 679.647 444.614 679.572 444.614 679.512C444.584 678.617 444.584 677.735 444.584 676.854C444.584 676.556 444.584 676.257 444.584 675.944C444.584 675.316 444.629 674.674 444.659 674.047C444.689 673.435 444.733 672.808 444.778 672.195C444.823 671.688 444.853 671.18 444.913 670.687C444.972 670.09 445.047 669.507 445.122 668.925C445.196 668.343 445.271 667.745 445.361 667.163C445.405 666.864 445.465 666.551 445.51 666.252C450.363 637.596 473.838 614.3 503.584 610.702C505.152 610.507 506.705 610.388 508.243 610.298C508.333 610.298 508.423 610.298 508.527 610.298C509.796 610.239 511.051 610.224 512.305 610.239C512.798 610.239 513.291 610.254 513.783 610.268C514.605 610.298 515.441 610.343 516.262 610.403C516.904 610.448 517.532 610.478 518.174 610.537C518.741 610.597 519.309 610.672 519.876 610.746C521.355 610.926 522.833 611.15 524.281 611.433C524.834 611.538 525.372 611.627 525.924 611.747C526.626 611.896 527.313 612.075 528.015 612.255C528.687 612.419 529.344 612.583 530.001 612.777C530.613 612.942 531.21 613.136 531.808 613.315C532.599 613.569 533.376 613.823 534.167 614.106C534.63 614.271 535.108 614.435 535.571 614.614C536.81 615.092 538.035 615.585 539.244 616.122C539.244 616.122 539.244 616.122 539.259 616.122C540.543 616.705 541.813 617.332 543.052 617.989C543.261 618.093 543.47 618.213 543.679 618.332C544.68 618.885 545.68 619.452 546.651 620.05C546.935 620.214 547.204 620.393 547.487 620.572C548.413 621.155 549.324 621.767 550.22 622.394C550.474 622.573 550.713 622.737 550.967 622.917C553.147 624.485 555.223 626.202 557.209 628.024C557.597 628.382 557.955 628.741 558.329 629.099C558.881 629.637 559.434 630.189 559.971 630.742C560.419 631.204 560.867 631.682 561.3 632.16C561.718 632.623 562.136 633.101 562.555 633.579C563.032 634.131 563.51 634.669 563.958 635.236C564.197 635.535 564.421 635.849 564.66 636.147C565.153 636.789 565.661 637.417 566.124 638.074C570.768 644.51 579.25 646.869 586.492 643.599C596.453 639.104 599.439 626.396 592.525 617.944L589.24 613.927C586.895 611.06 584.402 608.372 581.818 605.818C581.086 604.878 580.235 603.982 579.265 603.19L575.248 599.905C575.143 599.815 575.039 599.756 574.934 599.666C574.845 599.591 574.755 599.532 574.665 599.457C556.686 584.927 535.078 577.685 513.485 577.341C512.902 577.341 512.335 577.312 511.753 577.312C511.275 577.312 510.797 577.326 510.319 577.341C488.412 577.61 466.461 584.957 448.287 599.83C447.302 600.637 446.346 601.488 445.39 602.324C445.181 602.503 444.957 602.683 444.748 602.877C443.524 603.967 442.344 605.087 441.194 606.237C441.179 606.252 441.164 606.266 441.149 606.281C431.324 616.018 423.872 627.397 418.914 639.627C418.66 640.254 418.436 640.881 418.197 641.508C417.869 642.359 417.525 643.225 417.227 644.077C416.853 645.137 416.525 646.212 416.181 647.272C416.032 647.72 415.883 648.168 415.748 648.631C415.39 649.841 415.076 651.05 414.763 652.26C414.673 652.603 414.569 652.932 414.494 653.275C414.195 654.47 413.942 655.65 413.703 656.844C413.628 657.233 413.523 657.621 413.449 657.994C413.24 659.069 413.06 660.144 412.881 661.235C412.792 661.757 412.702 662.28 412.612 662.803C412.478 663.699 412.388 664.595 412.284 665.49C412.194 666.222 412.105 666.954 412.03 667.686C411.97 668.343 411.926 669 411.881 669.657C411.806 670.642 411.731 671.628 411.672 672.613C411.657 673.002 411.657 673.39 411.642 673.778C411.597 675.033 411.567 676.302 411.567 677.556C411.567 677.661 411.567 677.75 411.567 677.855C411.642 693.639 415.405 709.483 423.051 723.983C426.903 731.3 431.697 738.229 437.431 744.545C437.834 744.993 438.267 745.427 438.685 745.874C439.387 746.621 440.089 747.383 440.821 748.114C441.597 748.891 442.404 749.638 443.195 750.384C443.598 750.772 444.002 751.161 444.42 751.549C445.39 752.43 446.376 753.266 447.376 754.103C447.66 754.341 447.914 754.58 448.198 754.819C448.198 754.819 448.258 754.864 448.287 754.894C449.094 755.551 449.9 756.163 450.721 756.79C451.289 757.224 451.827 757.671 452.394 758.09C452.543 758.194 452.693 758.299 452.842 758.403C470 770.872 490.07 777.099 510.11 777.398C510.618 777.398 511.11 777.428 511.618 777.428C512.216 777.428 512.813 777.398 513.41 777.398C533.211 777.099 553.042 770.977 570.066 758.776C570.365 758.567 570.663 758.373 570.947 758.164C571.41 757.821 571.858 757.462 572.306 757.119C573.232 756.417 574.158 755.715 575.068 754.984C575.083 754.969 575.113 754.954 575.128 754.939L579.145 751.654C580.086 750.892 580.892 750.041 581.609 749.13C584.237 746.561 586.776 743.844 589.15 740.932L592.436 736.915C599.364 728.463 596.393 715.755 586.447 711.245L586.433 711.155Z" fill="#F28705"/>
</svg>
