<svg width="40" height="40" viewBox="0 0 40 40" fill="none" xmlns="http://www.w3.org/2000/svg">
<path d="M30 17.9168C29.3167 17.9168 28.75 17.3502 28.75 16.6668V13.3335C28.75 8.0835 27.2667 4.5835 20 4.5835C12.7333 4.5835 11.25 8.0835 11.25 13.3335V16.6668C11.25 17.3502 10.6833 17.9168 10 17.9168C9.31667 17.9168 8.75 17.3502 8.75 16.6668V13.3335C8.75 8.50016 9.91667 2.0835 20 2.0835C30.0833 2.0835 31.25 8.50016 31.25 13.3335V16.6668C31.25 17.3502 30.6833 17.9168 30 17.9168Z" fill="#7210FF"/>
<path d="M28.3333 37.9165H11.6666C4.31659 37.9165 2.08325 35.6832 2.08325 28.3332V24.9998C2.08325 17.6498 4.31659 15.4165 11.6666 15.4165H28.3333C35.6833 15.4165 37.9166 17.6498 37.9166 24.9998V28.3332C37.9166 35.6832 35.6833 37.9165 28.3333 37.9165ZM11.6666 17.9165C5.69992 17.9165 4.58325 19.0498 4.58325 24.9998V28.3332C4.58325 34.2832 5.69992 35.4165 11.6666 35.4165H28.3333C34.2999 35.4165 35.4166 34.2832 35.4166 28.3332V24.9998C35.4166 19.0498 34.2999 17.9165 28.3333 17.9165H11.6666Z" fill="#7210FF"/>
<path d="M13.3334 28.3334C13.1167 28.3334 12.9001 28.2835 12.7001 28.2001C12.4834 28.1168 12.3168 28.0001 12.1501 27.8501C11.8501 27.5334 11.6667 27.1168 11.6667 26.6668C11.6667 26.4501 11.7167 26.2334 11.8001 26.0334C11.8834 25.8168 12.0001 25.6501 12.1501 25.4835C12.3168 25.3335 12.4834 25.2168 12.7001 25.1334C13.3001 24.8668 14.0501 25.0168 14.5167 25.4835C14.6667 25.6501 14.7834 25.8334 14.8668 26.0334C14.9501 26.2334 15.0001 26.4501 15.0001 26.6668C15.0001 27.1001 14.8167 27.5334 14.5167 27.8501C14.2001 28.1501 13.7667 28.3334 13.3334 28.3334Z" fill="#7210FF"/>
<path d="M19.9999 28.3334C19.5666 28.3334 19.1333 28.15 18.8166 27.85C18.5166 27.5333 18.3333 27.1167 18.3333 26.6667C18.3333 26.45 18.3666 26.2333 18.4666 26.0333C18.5499 25.8333 18.6666 25.65 18.8166 25.4834C19.1999 25.1 19.7833 24.9167 20.3166 25.0333C20.4333 25.05 20.5333 25.0833 20.6333 25.1333C20.7333 25.1667 20.8332 25.2167 20.9332 25.2834C21.0166 25.3334 21.0999 25.4167 21.1832 25.4834C21.3332 25.65 21.4499 25.8333 21.5333 26.0333C21.6166 26.2333 21.6666 26.45 21.6666 26.6667C21.6666 27.1167 21.4832 27.5333 21.1832 27.85C21.0999 27.9167 21.0166 27.9833 20.9332 28.05C20.8332 28.1167 20.7333 28.1667 20.6333 28.2C20.5333 28.25 20.4333 28.2834 20.3166 28.3C20.2166 28.3167 20.0999 28.3334 19.9999 28.3334Z" fill="#7210FF"/>
<path d="M26.6667 28.3334C26.2167 28.3334 25.8 28.15 25.4833 27.85C25.3333 27.6833 25.2166 27.5 25.1333 27.3C25.05 27.1 25 26.8834 25 26.6667C25 26.2334 25.1833 25.8 25.4833 25.4834C25.5667 25.4167 25.65 25.35 25.7333 25.2834C25.8333 25.2167 25.9333 25.1667 26.0333 25.1333C26.1333 25.0833 26.2333 25.05 26.3333 25.0333C26.8833 24.9167 27.45 25.1 27.85 25.4834C28.15 25.8 28.3333 26.2167 28.3333 26.6667C28.3333 26.8834 28.2834 27.1 28.2 27.3C28.1167 27.5167 28 27.6833 27.85 27.85C27.5333 28.15 27.1 28.3334 26.6667 28.3334Z" fill="#7210FF"/>
</svg>
