<svg width="24" height="24" viewBox="0 0 24 24" fill="none" xmlns="http://www.w3.org/2000/svg">
<path d="M11.2594 18.2377C15.9747 18.2377 19.7972 14.4152 19.7972 9.69992C19.7972 4.98462 15.9747 1.16211 11.2594 1.16211C6.54407 1.16211 2.72156 4.98462 2.72156 9.69992C2.72156 14.4152 6.54407 18.2377 11.2594 18.2377Z" fill="#21D8DE"/>
<path d="M15.4162 2.24265C13.7546 1.31645 11.9171 1.00478 10.1652 1.23259C11.2067 1.36858 12.2405 1.70012 13.2138 2.24265C17.3323 4.5384 18.81 9.73825 16.5142 13.8568C15.1447 16.3138 12.7416 17.8306 10.1511 18.1674C13.5166 18.6069 16.9635 17.002 18.7167 13.8568C21.0125 9.73825 19.5348 4.53845 15.4162 2.24265Z" fill="#11B9C1"/>
<path d="M11.0025 12.5315C10.1261 12.0159 10.3662 8.79761 8.1524 8.71146C7.44384 8.6839 6.07462 6.66354 6.38892 6.28905C7.15171 5.3801 6.31396 4.74269 6.98109 4.27174C7.34395 4.01557 7.78101 3.74318 8.10487 4.23049C8.42873 4.7178 7.82221 5.30004 8.18526 5.48435C8.54831 5.66866 8.93606 5.05924 9.34312 4.65007C9.75018 4.24089 10.2322 4.71152 10.5262 4.52402C10.8202 4.33652 11.3443 3.97905 12.0906 3.97554C12.8369 3.97202 12.5517 3.48822 12.8251 3.4105C13.0985 3.33283 13.8348 3.90199 14.1761 3.73047C14.9203 3.3565 15.3454 2.74821 15.3939 2.23066C12.5092 0.633677 9.09876 0.883333 6.52771 2.59169L6.52687 2.59225C5.77096 3.09466 5.03357 4.02189 4.80346 4.89986C4.37081 6.55061 5.53851 8.21913 6.10204 8.90285C6.24651 9.07811 6.23189 9.33504 6.0667 9.49089C5.59837 9.93283 4.857 10.8772 5.58853 11.9497C6.6014 13.4346 6.35967 13.8683 5.58201 14.9235C5.39728 15.1742 5.24226 15.4105 5.11917 15.6344C5.22077 15.7394 5.32509 15.8418 5.43201 15.9415L5.44148 15.9502C5.49226 15.9974 5.54361 16.044 5.59551 16.0899L5.60775 16.1007C5.65912 16.146 5.71115 16.1907 5.76379 16.2348L5.77781 16.2466C5.83036 16.2905 5.88351 16.3338 5.93732 16.3766L5.95143 16.3878C6.00581 16.4309 6.06089 16.4733 6.11653 16.5153L6.12885 16.5246C6.1859 16.5674 6.24365 16.6096 6.30206 16.6511L6.31007 16.6569C6.37097 16.7001 6.43256 16.7426 6.49486 16.7844L6.49514 16.7846C7.30003 16.6892 8.43346 16.6845 8.90076 16.205C9.5332 15.5561 11.9841 15.8936 12.4278 14.7335C12.5716 14.3574 11.8791 13.0471 11.0025 12.5315ZM18.7167 13.8569C20.584 10.5071 19.9548 6.44196 17.4389 3.8059C17.5897 4.69352 17.7719 6.00789 17.5744 6.23482C17.2731 6.58113 17.337 7.24352 17.337 7.24352C17.337 7.24352 16.1254 7.86316 15.6832 8.75355C15.241 9.64394 15.3208 11.6628 15.6872 11.9523C16.0537 12.2418 17.3948 11.7935 17.5841 12.3845C17.994 13.665 15.3197 16.5331 14.0681 17.7619C15.9754 17.0982 17.6561 15.7596 18.7167 13.8569Z" fill="#BBF44D"/>
<path d="M19.7978 9.64273C19.7977 9.62135 19.7977 9.59993 19.7974 9.57855C19.7964 9.51687 19.7949 9.45523 19.7927 9.39368C19.7921 9.37943 19.7913 9.36518 19.7907 9.35093C19.7887 9.30236 19.7863 9.25381 19.7835 9.20529C19.7821 9.18143 19.7804 9.15757 19.7787 9.13371C19.7718 9.03001 19.763 8.92644 19.7522 8.82307C19.7496 8.79888 19.7472 8.7747 19.7445 8.75055C19.7391 8.70257 19.7332 8.65463 19.7269 8.60674C19.7251 8.59249 19.7235 8.57815 19.7216 8.5639C19.7134 8.50373 19.7046 8.44364 19.6952 8.38366C19.6915 8.36037 19.6875 8.33712 19.6836 8.31387C19.6773 8.2752 19.6707 8.23657 19.6638 8.19799C19.6525 8.13546 19.6406 8.07305 19.6279 8.01077C19.6228 7.98523 19.6176 7.95968 19.6122 7.93418C19.6038 7.89456 19.5951 7.85499 19.586 7.81549C19.5811 7.79384 19.5765 7.77218 19.5714 7.75057C19.5577 7.69225 19.5434 7.63407 19.5285 7.57605C19.5229 7.55412 19.5168 7.53232 19.511 7.51048C19.5008 7.47195 19.4904 7.43346 19.4797 7.39507C19.4724 7.3692 19.4649 7.34341 19.4574 7.31759C19.4397 7.25661 19.4214 7.19582 19.4024 7.13524C19.3913 7.0999 19.3797 7.06465 19.3682 7.02945C19.3601 7.00507 19.3523 6.9806 19.344 6.95627C19.327 6.90617 19.3096 6.85623 19.2916 6.80646C19.2828 6.78185 19.2736 6.75738 19.2646 6.73287C19.2498 6.69284 19.2349 6.65285 19.2194 6.61301C19.2096 6.58755 19.1994 6.5622 19.1892 6.53684C19.1656 6.4775 19.1414 6.41843 19.1164 6.35965C19.1028 6.32749 19.0889 6.29543 19.0748 6.26341C19.0636 6.23782 19.0525 6.21223 19.041 6.18677C19.0247 6.15068 19.008 6.11482 18.9912 6.07896C18.9796 6.05398 18.968 6.02899 18.9561 6.0041C18.9327 5.95514 18.9088 5.90641 18.8844 5.8579C18.8722 5.83352 18.8595 5.80938 18.8471 5.7851C18.8309 5.7537 18.8147 5.72234 18.7981 5.69112C18.7844 5.66529 18.7705 5.6396 18.7565 5.61391C18.7403 5.58405 18.7239 5.55429 18.7072 5.52457C18.693 5.49912 18.6788 5.47371 18.6642 5.4484C18.6464 5.41732 18.6282 5.38638 18.61 5.35549C18.5963 5.33229 18.5828 5.30895 18.5689 5.28588C18.5385 5.23547 18.5076 5.18538 18.4762 5.1356C18.4622 5.11343 18.4478 5.09149 18.4336 5.06941C18.4138 5.03866 18.394 5.00796 18.3738 4.97745C18.3574 4.95285 18.3409 4.92835 18.3243 4.90395C18.2886 4.85115 18.2523 4.7988 18.2154 4.74691C18.1955 4.71907 18.1755 4.69137 18.1553 4.66371C18.1382 4.64027 18.1212 4.61674 18.1039 4.59345C18.0547 4.52781 18.0047 4.46283 17.9539 4.39854C17.9289 4.36689 17.9038 4.33542 17.8784 4.30413C17.8598 4.28135 17.8409 4.2588 17.8221 4.23621C17.7809 4.18652 17.739 4.13733 17.6966 4.08865C17.6743 4.0631 17.6518 4.03769 17.6292 4.01243C17.6092 3.99007 17.5894 3.96771 17.5691 3.94554C17.5438 3.91779 17.5181 3.89032 17.4924 3.86285C17.4745 3.84382 17.4569 3.82455 17.4389 3.80566C17.5897 4.69329 17.7718 6.00766 17.5744 6.23459C17.2731 6.5809 17.3369 7.24329 17.3369 7.24329C17.3369 7.24329 17.3038 7.26026 17.2474 7.29209C17.7012 8.83629 17.7211 10.5071 17.25 12.1058C17.4126 12.1508 17.5358 12.2337 17.584 12.3843C17.9939 13.6647 15.3197 16.5328 14.068 17.7617C14.7264 17.5327 15.3543 17.2242 15.9379 16.843L15.9392 16.8422C16.1505 16.704 16.3556 16.5564 16.5537 16.3999L16.5685 16.3883C16.6128 16.3531 16.6568 16.3175 16.7005 16.2814L16.7156 16.2689C16.8603 16.1488 17.001 16.0239 17.1373 15.8945C17.1438 15.8884 17.1502 15.8821 17.1566 15.8759C17.1942 15.84 17.2315 15.8037 17.2685 15.7671L17.2975 15.7382C17.3324 15.7033 17.367 15.668 17.4014 15.6324L17.4281 15.6047C17.4683 15.5627 17.5081 15.5202 17.5475 15.4773C17.5496 15.4751 17.5517 15.4729 17.5537 15.4706C17.5967 15.4236 17.6392 15.3761 17.6812 15.3281C17.6852 15.3236 17.6891 15.3189 17.6931 15.3142C17.7289 15.2731 17.7644 15.2316 17.7995 15.1897C17.8104 15.1767 17.8211 15.1635 17.832 15.1505C17.8605 15.1161 17.8887 15.0814 17.9167 15.0465C17.9287 15.0315 17.9406 15.0166 17.9525 15.0015C17.9801 14.9666 18.0075 14.9313 18.0347 14.8957C18.0454 14.8818 18.0561 14.8679 18.0667 14.8539C18.1006 14.809 18.1341 14.7638 18.1672 14.7181C18.1703 14.7138 18.1736 14.7095 18.1767 14.7051C18.2132 14.6545 18.2492 14.6035 18.2846 14.5521C18.2936 14.539 18.3025 14.5256 18.3116 14.5123C18.3375 14.4744 18.3631 14.4362 18.3883 14.3978C18.4001 14.3799 18.4117 14.3619 18.4233 14.3439C18.458 14.2903 18.4921 14.2364 18.5256 14.1821C18.5484 14.1451 18.5709 14.1077 18.5932 14.0702C18.6031 14.0535 18.6131 14.037 18.6229 14.0203C18.6548 13.9661 18.686 13.9116 18.7166 13.8567L18.7177 13.8547C18.7501 13.7964 18.7818 13.7378 18.8129 13.6788C18.823 13.6597 18.8327 13.6405 18.8426 13.6213C18.8751 13.5587 18.9067 13.4958 18.9376 13.4325C18.9572 13.3922 18.9764 13.3519 18.9954 13.3114C19.0051 13.2906 19.0149 13.2699 19.0245 13.249C19.0464 13.2011 19.0679 13.153 19.0889 13.1046C19.0945 13.0919 19.1003 13.0793 19.1057 13.0666C19.1317 13.0061 19.1571 12.9453 19.1817 12.8842C19.1885 12.8673 19.195 12.8504 19.2016 12.8335C19.2193 12.7889 19.2367 12.7442 19.2536 12.6994C19.2619 12.6774 19.2699 12.6553 19.278 12.6333C19.293 12.5925 19.3076 12.5517 19.3219 12.5108C19.3297 12.4885 19.3376 12.4662 19.3451 12.4439C19.3602 12.3996 19.3748 12.3552 19.3891 12.3108C19.3949 12.2929 19.4009 12.275 19.4065 12.2571C19.426 12.1953 19.4448 12.1334 19.4628 12.0714C19.4662 12.0594 19.4694 12.0473 19.4729 12.0353C19.4873 11.9848 19.5013 11.9343 19.5147 11.8836C19.5204 11.862 19.5259 11.8404 19.5314 11.8188C19.5481 11.7541 19.564 11.6892 19.5791 11.6241C19.5889 11.5817 19.5983 11.5393 19.6074 11.4969C19.612 11.4758 19.6166 11.4547 19.6211 11.4335C19.6328 11.377 19.644 11.3203 19.6546 11.2636C19.6557 11.2572 19.6571 11.2509 19.6583 11.2445C19.6698 11.182 19.6804 11.1195 19.6904 11.0569C19.6938 11.0362 19.6968 11.0154 19.6999 10.9946C19.7165 10.8873 19.7309 10.7796 19.7431 10.6717C19.7457 10.6486 19.7485 10.6254 19.7509 10.6023C19.7559 10.5555 19.7603 10.5086 19.7644 10.4617C19.7659 10.4451 19.7677 10.4285 19.769 10.4119C19.7742 10.3496 19.7786 10.2872 19.7824 10.2249C19.7836 10.2062 19.7844 10.1875 19.7854 10.1687C19.7878 10.1241 19.79 10.0796 19.7917 10.035C19.7927 10.0108 19.7934 9.9867 19.7941 9.96255C19.7953 9.92257 19.7962 9.88259 19.7968 9.84265C19.7972 9.81809 19.7976 9.79352 19.7978 9.76896C19.7983 9.72682 19.7981 9.68477 19.7978 9.64273Z" fill="#A2D82B"/>
<path d="M15.6243 22.0229L12.0429 21.1942C12.0111 21.1869 11.978 21.1869 11.9462 21.1942L8.36478 22.0231C7.6085 22.1982 7.07295 22.8718 7.07295 23.6481H16.9162V23.6479C16.9162 22.8716 16.3806 22.1979 15.6243 22.0229Z" fill="#FFA426"/>
<path d="M15.6243 22.0228L12.0429 21.1941C12.0111 21.1868 14.7138 22.4183 14.7138 23.6478V23.648H16.9162V23.6478C16.9162 22.8715 16.3806 22.1978 15.6243 22.0228Z" fill="#EF8E18"/>
<path d="M13.2138 2.24262C13.7667 2.55056 14.2838 2.91884 14.7556 3.34071C15.14 3.00063 15.3599 2.59343 15.3939 2.23057C15.2178 2.13311 15.0384 2.04183 14.8559 1.95691L14.8403 1.94965C14.7529 1.90913 14.6648 1.87008 14.576 1.83251L14.5608 1.82613C14.3804 1.75016 14.1974 1.68045 14.0122 1.61712L14.0066 1.61515C13.9177 1.58489 13.8283 1.55612 13.7384 1.52885L13.7123 1.52093C13.6246 1.49449 13.5364 1.46948 13.4479 1.44593L13.4255 1.44012C13.2459 1.39293 13.0649 1.35164 12.8826 1.31632C12.8737 1.31458 12.8648 1.31276 12.8558 1.31107C12.7562 1.29215 12.6562 1.27503 12.556 1.25969C12.4705 1.24657 12.385 1.23462 12.2995 1.22416C12.2881 1.22276 12.2768 1.22158 12.2655 1.22023C12.1798 1.21003 12.0939 1.20114 12.008 1.19355L11.9958 1.19238C11.9101 1.18512 11.8242 1.17918 11.7383 1.17457C11.7224 1.17368 11.7065 1.17269 11.6905 1.1719C11.5903 1.16693 11.4901 1.16376 11.3898 1.16238C11.3079 1.16121 11.2261 1.16098 11.1444 1.16215C11.1299 1.16238 11.1154 1.16285 11.1009 1.16313C11.0244 1.16463 10.9479 1.16712 10.8716 1.17068C10.8585 1.17129 10.8454 1.17166 10.8323 1.17232C10.7516 1.17644 10.6711 1.18202 10.5906 1.18844C10.5704 1.19004 10.5502 1.19163 10.53 1.19337C10.4518 1.20014 10.3736 1.208 10.2955 1.21694C10.2752 1.21929 10.2548 1.22182 10.2345 1.2243C10.2125 1.22698 10.1907 1.2303 10.1687 1.23316C11.2091 1.36938 12.2415 1.70069 13.2138 2.24262Z" fill="#A2D82B"/>
<path d="M21.2345 6.86527C20.5105 4.31738 18.8786 2.18551 16.6216 0.824548L16.7808 0.539033C16.8272 0.455112 16.8385 0.356211 16.8121 0.264C16.7858 0.171788 16.7239 0.093787 16.6402 0.0470869C16.5564 0.000386736 16.4575 -0.0112036 16.3652 0.0148554C16.2729 0.0409145 16.1947 0.102498 16.1478 0.186111L15.2673 1.76566C14.1773 1.21375 13.0062 0.897204 11.8148 0.823516C11.7941 0.822204 11.7733 0.821313 11.7525 0.820141C11.6895 0.816673 11.6264 0.81386 11.5633 0.811798C11.5246 0.810399 11.4858 0.809259 11.447 0.808376C11.4121 0.807673 11.3772 0.807579 11.3422 0.807298C10.1281 0.795734 8.92456 1.034 7.80641 1.50728L7.775 1.52045C7.72607 1.54136 7.67718 1.5625 7.62852 1.58434C5.88327 2.36078 4.44135 3.67356 3.49472 5.37179C2.33859 7.44582 2.05936 9.84595 2.70844 12.13C3.32437 14.2974 4.70667 16.1137 6.61851 17.2814L6.0703 18.2649L5.73806 18.8609C5.69163 18.9449 5.68037 19.0438 5.70673 19.136C5.73309 19.2282 5.79493 19.3062 5.8787 19.3529C5.96246 19.3996 6.06133 19.4112 6.15363 19.3851C6.24592 19.3591 6.32413 19.2975 6.3711 19.2139L6.5301 18.9286C8.00905 19.6881 9.61794 20.0748 11.2441 20.0748C11.3734 20.0748 11.5028 20.0721 11.6322 20.0673V20.9057L8.28547 21.6802C7.36433 21.8934 6.72102 22.7026 6.72102 23.6481C6.72104 23.7415 6.75812 23.831 6.82413 23.897C6.89014 23.963 6.97966 24.0001 7.07301 24.0001H16.9162C17.0096 24.0001 17.0991 23.9629 17.1651 23.8969C17.2311 23.8309 17.2682 23.7413 17.2682 23.6479C17.2682 22.7024 16.6248 21.8932 15.7037 21.68L12.357 20.9057V20.0142C12.9445 19.9503 13.5256 19.8369 14.0941 19.6752C16.7586 18.918 18.9687 17.1686 20.3173 14.7491C21.666 12.3296 21.9917 9.52973 21.2345 6.86527ZM15.6136 2.76845C16.1576 3.10891 16.6596 3.51215 17.1095 3.96985C17.3326 5.31226 17.3287 5.88704 17.2874 6.02916C17.0365 6.33769 16.9846 6.7719 16.9792 7.04044C16.5928 7.26905 15.7464 7.83478 15.3679 8.59692C15.1436 9.04856 15.0173 9.79134 15.03 10.5838C15.0379 11.0747 15.1054 11.9412 15.4691 12.2284C15.7199 12.4266 16.0989 12.4187 16.5 12.4104C16.7183 12.4059 16.9441 12.4012 17.1064 12.4333C17.1931 12.4504 17.2436 12.4757 17.2488 12.4919C17.3086 12.6786 17.2632 12.9653 17.1175 13.3208C17.0995 13.3637 17.0901 13.4097 17.09 13.4562C17.0898 13.5027 17.0989 13.5488 17.1166 13.5918C17.1344 13.6347 17.1605 13.6738 17.1934 13.7066C17.2263 13.7394 17.2654 13.7654 17.3085 13.783C17.3515 13.8007 17.3976 13.8096 17.4441 13.8093C17.4906 13.809 17.5366 13.7995 17.5794 13.7814C17.6222 13.7632 17.661 13.7368 17.6935 13.7035C17.726 13.6703 17.7516 13.6309 17.7689 13.5877C17.9841 13.0624 18.0333 12.6337 17.9192 12.2773C17.7283 11.6809 17.0099 11.6959 16.4854 11.7067C16.3033 11.7104 16.0033 11.7167 15.9101 11.6772C15.7228 11.4064 15.5979 9.71658 15.9984 8.91014C16.3826 8.13661 17.4864 7.56244 17.4972 7.55691C17.5597 7.52471 17.6113 7.47456 17.6451 7.4129C17.679 7.35123 17.6937 7.28086 17.6874 7.21079C17.6693 7.01129 17.6948 6.63268 17.8399 6.4659C17.9778 6.30736 18.0558 6.03797 17.9879 5.23843C17.9816 5.16437 17.9742 5.08684 17.9656 5.00598C18.708 6.07205 19.1979 7.31719 19.3727 8.61094C19.4688 9.32311 19.4717 10.0341 19.3837 10.7313L19.3805 10.7559C19.3745 10.8018 19.3682 10.8476 19.3615 10.8934C19.3593 10.9087 19.3568 10.924 19.3545 10.9394C19.3481 10.9807 19.3418 11.022 19.3348 11.0632C19.3257 11.1174 19.316 11.1716 19.3057 11.2256C19.3017 11.2466 19.2972 11.2676 19.2931 11.2886C19.285 11.3293 19.2768 11.37 19.2681 11.4106C19.2639 11.4307 19.2593 11.4506 19.2549 11.4705C19.2453 11.5133 19.2355 11.5561 19.2253 11.5987C19.2212 11.6159 19.217 11.6331 19.2128 11.6502C19.2006 11.6996 19.188 11.7488 19.1748 11.798C19.1722 11.8081 19.1696 11.8182 19.1668 11.8283C19.1329 11.9536 19.096 12.078 19.0561 12.2016L19.0538 12.2085C19.0319 12.2758 19.0092 12.3427 18.9856 12.4094C18.9672 12.4616 18.9482 12.5136 18.9287 12.5654C18.9253 12.5745 18.9219 12.5838 18.9184 12.593C18.8961 12.6516 18.8732 12.7099 18.8497 12.768L18.8487 12.7704C18.8234 12.8325 18.7974 12.8942 18.7707 12.9557L18.7694 12.9585C18.745 13.0145 18.7199 13.0701 18.6942 13.1255C18.6874 13.1402 18.6804 13.1549 18.6735 13.1697C18.6258 13.2711 18.5761 13.3716 18.5244 13.471C18.516 13.487 18.5079 13.5031 18.4994 13.519C18.47 13.5749 18.4399 13.6304 18.4092 13.6856C18.3651 13.7646 18.3196 13.8429 18.2729 13.9205C18.255 13.9502 18.2364 13.9794 18.2181 14.0089C18.1894 14.0552 18.1608 14.1016 18.1313 14.1472C18.1072 14.1846 18.0823 14.2213 18.0576 14.2581C18.0333 14.2945 18.009 14.3308 17.9842 14.3666C17.9558 14.4076 17.9268 14.4481 17.8977 14.4884C17.8758 14.5188 17.854 14.549 17.8318 14.579C17.7803 14.6483 17.7278 14.7169 17.6741 14.7846C17.6389 14.829 17.6034 14.8731 17.5673 14.9168C17.5487 14.9393 17.5298 14.9616 17.5109 14.984C17.473 15.029 17.4347 15.0736 17.3958 15.1177C17.3779 15.138 17.3598 15.158 17.3417 15.178C17.3014 15.2227 17.2611 15.2672 17.2199 15.311C17.2019 15.3301 17.1835 15.3487 17.1654 15.3676C17.1237 15.4111 17.082 15.4545 17.0394 15.497C17.0187 15.5177 16.9975 15.5376 16.9765 15.5581C16.936 15.5976 16.8957 15.6373 16.8544 15.6759C16.7254 15.7966 16.5926 15.9131 16.456 16.0251C16.2034 16.2317 15.9386 16.4229 15.6631 16.5977C16.0676 16.1434 16.494 15.633 16.8657 15.1211C16.9186 15.0454 16.9398 14.952 16.9245 14.861C16.9093 14.7699 16.8589 14.6885 16.7842 14.6343C16.7095 14.58 16.6165 14.5573 16.5252 14.571C16.4339 14.5847 16.3516 14.6337 16.2961 14.7074C15.4784 15.8336 14.3783 16.9605 13.8832 17.45C13.0335 17.7374 12.1426 17.8841 11.2456 17.8844C10.0166 17.8843 8.7726 17.6064 7.60869 17.0256C8.2123 16.9495 8.80021 16.8126 9.15275 16.4508C9.33486 16.264 9.90524 16.1647 10.4085 16.0772C11.3536 15.9127 12.4249 15.7264 12.7565 14.8594C12.9951 14.2353 12.1264 12.7845 11.181 12.2283C10.979 12.1094 10.8059 11.5581 10.6533 11.0717C10.3027 9.95447 9.8225 8.42433 8.16608 8.35992C8.10472 8.35753 7.86116 8.25455 7.47608 7.81271C6.97265 7.23497 6.71024 6.65447 6.6951 6.47077C7.1489 5.90105 7.09991 5.38444 7.06719 5.03959C7.03724 4.72323 7.04315 4.65896 7.1841 4.55945C7.29782 4.47915 7.56412 4.29095 7.68965 4.31457C7.7353 4.3231 7.78124 4.37959 7.81175 4.42548C7.88286 4.53245 7.84977 4.67335 7.78677 4.89263C7.72297 5.11482 7.59018 5.57705 8.02597 5.7983C8.12957 5.8509 8.22964 5.87387 8.3263 5.87387C8.71855 5.87382 9.05441 5.49521 9.33505 5.17862C9.42027 5.08252 9.50835 4.9832 9.59272 4.89835C9.68056 4.81009 9.75439 4.81276 10.0011 4.86995C10.1984 4.9157 10.4685 4.97837 10.7155 4.82082L10.7557 4.79509C11.0443 4.61002 11.4805 4.33042 12.0923 4.32751C12.7463 4.32442 12.9188 3.98565 12.9874 3.78399C13.0657 3.81217 13.1655 3.85539 13.2409 3.88801C13.5947 4.04129 13.9958 4.21496 14.3341 4.04499C14.9414 3.73974 15.398 3.27606 15.6136 2.76845ZM6.58584 16.4203C6.56127 16.4033 6.53666 16.386 6.51187 16.3684L6.50601 16.3642C6.45016 16.3245 6.39483 16.2841 6.34002 16.243L6.3283 16.2341C6.275 16.194 6.22219 16.1532 6.16987 16.1118L6.15641 16.1011C6.10485 16.0601 6.0539 16.0186 6.00252 15.9756L5.9901 15.9652C5.93975 15.923 5.88992 15.8802 5.84062 15.8367L5.82881 15.8263C5.77861 15.7819 5.72895 15.7368 5.67984 15.6912L5.67206 15.684C5.63456 15.649 5.59748 15.6138 5.56045 15.578C5.64768 15.4382 5.7486 15.2908 5.86537 15.1323C6.28935 14.557 6.57004 14.1412 6.60782 13.6233C6.64541 13.1074 6.43434 12.565 5.87934 11.7514C5.33067 10.947 5.80977 10.2174 6.30829 9.74695C6.60655 9.46552 6.63529 8.99644 6.37373 8.67905C6.23932 8.51584 6.11198 8.34694 5.99207 8.1728C5.96586 8.13472 5.93241 8.10219 5.89362 8.07704C5.85483 8.0519 5.81147 8.03465 5.76601 8.02627C5.72055 8.01789 5.67388 8.01855 5.62868 8.02821C5.58348 8.03787 5.54062 8.05634 5.50256 8.08256C5.46449 8.10878 5.43195 8.14224 5.40681 8.18102C5.38167 8.21981 5.36442 8.26317 5.35604 8.30863C5.34766 8.35409 5.34832 8.40075 5.35798 8.44595C5.36763 8.49116 5.3861 8.53401 5.41232 8.57208C5.54372 8.76289 5.68326 8.94796 5.83054 9.1268C5.85735 9.15933 5.85506 9.20686 5.82524 9.23498C4.85306 10.1524 4.66082 11.2141 5.29785 12.1481C6.20751 13.4816 6.01499 13.7428 5.29874 14.7147C5.21693 14.8255 5.13788 14.9383 5.06165 15.0531C4.29079 14.1616 3.71742 13.105 3.38568 11.9377C2.78803 9.83447 3.04514 7.62441 4.10967 5.71463C4.19479 5.56231 4.28466 5.41269 4.37915 5.26599C4.31793 5.80974 4.38975 6.38724 4.59529 6.98925C4.61022 7.033 4.63361 7.07338 4.66415 7.10809C4.69468 7.14279 4.73176 7.17114 4.77325 7.19151C4.81474 7.21188 4.85984 7.22388 4.90597 7.22682C4.9521 7.22975 4.99836 7.22357 5.0421 7.20863C5.08585 7.1937 5.12622 7.1703 5.16092 7.13976C5.19562 7.10923 5.22397 7.07215 5.24434 7.03066C5.26471 6.98917 5.27671 6.94407 5.27965 6.89794C5.28259 6.85182 5.27642 6.80556 5.26148 6.76182C5.04299 6.12193 5.00348 5.52549 5.1441 4.98915C5.34117 4.23737 5.98921 3.37295 6.72046 2.88639L6.72266 2.88493C7.09552 2.63728 7.48783 2.42026 7.89575 2.236C7.94427 2.21425 7.99302 2.19301 8.04205 2.1722L8.07472 2.15828C8.38351 2.02866 8.69983 1.91778 9.02197 1.82626C9.75945 1.61669 10.5099 1.51248 11.2561 1.51108C11.2637 1.51108 11.2714 1.51089 11.279 1.51094C11.3403 1.51098 11.4015 1.51244 11.4627 1.51389C11.4956 1.51473 11.5284 1.51525 11.5613 1.51647C11.603 1.51797 11.6445 1.52031 11.6861 1.52242C11.7382 1.52519 11.7905 1.52795 11.8426 1.5317C11.8687 1.53353 11.8947 1.53583 11.9208 1.53794C11.9879 1.54342 12.0549 1.54937 12.1219 1.5565C12.1362 1.558 12.1505 1.55969 12.1648 1.56128C12.2428 1.57005 12.3208 1.57966 12.3987 1.59067L12.4159 1.59316C13.0385 1.68272 13.6486 1.84386 14.2342 2.07339L14.2405 2.07583C14.3219 2.1078 14.4028 2.14122 14.4835 2.1759L14.4956 2.18101C14.5756 2.21556 14.6551 2.25156 14.7343 2.28878L14.7467 2.29445C14.8297 2.33362 14.912 2.37414 14.9936 2.416C14.8758 2.74937 14.5599 3.14101 14.0279 3.4111C13.9344 3.42137 13.6661 3.30507 13.5208 3.24212C13.2252 3.11411 12.9699 3.00353 12.7291 3.07201C12.4438 3.15306 12.37 3.39704 12.3345 3.51428C12.3269 3.53964 12.3155 3.57709 12.3079 3.59073C12.2974 3.59664 12.2422 3.62289 12.089 3.62364C11.2728 3.62753 10.6893 4.00154 10.3759 4.20254L10.3507 4.21862C10.312 4.21801 10.2215 4.19846 10.1602 4.18426C9.902 4.12431 9.46963 4.02409 9.09374 4.4019C8.99511 4.50104 8.90019 4.6081 8.80841 4.7116C8.7201 4.81121 8.58228 4.96665 8.46899 5.06776C8.54488 4.80291 8.64847 4.4124 8.39816 4.03581C8.2446 3.80471 8.04974 3.66568 7.81911 3.62256C7.43352 3.55051 7.07966 3.77153 6.77826 3.98434C6.29277 4.32709 6.33543 4.77727 6.36655 5.10596C6.39684 5.42541 6.42299 5.70127 6.11948 6.06291C5.93873 6.2783 5.94881 6.60427 6.15041 7.05947C6.32849 7.46171 6.63848 7.9306 6.97954 8.31375C7.41055 8.79797 7.8006 9.05016 8.1389 9.06333C9.21636 9.10523 9.58236 10.0095 9.98188 11.2824C10.2002 11.978 10.3887 12.5787 10.8243 12.835C11.5933 13.2875 12.1199 14.371 12.0951 14.6181C11.8984 15.1034 11.0432 15.2522 10.2881 15.3836C9.62052 15.4997 8.98996 15.6094 8.6488 15.9595C8.35813 16.2577 7.56866 16.3296 6.93426 16.3873C6.81355 16.3981 6.69782 16.4086 6.58584 16.4203ZM15.5449 22.3658C16.0267 22.4773 16.3918 22.839 16.5171 23.2961H7.47205C7.5974 22.8392 7.96246 22.4775 8.44414 22.366L11.9946 21.5443L15.5449 22.3658ZM19.6842 14.3961C18.4299 16.6465 16.3742 18.2737 13.896 18.9779C11.5343 19.649 9.05853 19.4048 6.88335 18.2948L7.25165 17.6341C8.50672 18.2696 9.86914 18.5936 11.2462 18.5936C12.062 18.5936 12.883 18.4801 13.6894 18.2509C15.7747 17.6584 17.5351 16.3564 18.7055 14.5558C18.7109 14.5476 18.7162 14.5392 18.7216 14.5308C18.7524 14.4832 18.7828 14.4353 18.8127 14.3872C18.828 14.3626 18.8427 14.3377 18.8577 14.313C18.8782 14.2791 18.8989 14.2455 18.9191 14.2113C18.9548 14.1506 18.9898 14.0896 19.0241 14.0281C19.0573 13.9685 19.0899 13.9084 19.1217 13.848C19.1312 13.8299 19.1406 13.8116 19.15 13.7934C19.1827 13.7306 19.2146 13.6675 19.2458 13.6039C19.2677 13.5591 19.2893 13.5142 19.3105 13.4691C19.3183 13.4525 19.3262 13.4359 19.3339 13.4191C19.3611 13.3606 19.3876 13.3017 19.4134 13.2426L19.417 13.2347C19.4457 13.1686 19.4737 13.1022 19.5009 13.0354L19.5041 13.0271C19.5289 12.9661 19.5529 12.9048 19.5763 12.8434C19.5807 12.8318 19.585 12.8202 19.5893 12.8086C19.6364 12.6835 19.6806 12.5574 19.7219 12.4303L19.7271 12.4144C19.7699 12.2817 19.8095 12.1483 19.8459 12.0141C19.8498 11.9997 19.8535 11.9852 19.8573 11.9708C19.8874 11.8578 19.9151 11.7441 19.9406 11.63C19.9463 11.6044 19.9521 11.5789 19.9576 11.5533C19.9655 11.516 19.973 11.4787 19.9805 11.4413C20.0081 11.3037 20.0324 11.1655 20.0534 11.0269C20.0547 11.0183 20.0561 11.0097 20.0574 11.001C20.0655 10.9464 20.0729 10.8916 20.08 10.8368L20.0813 10.8272C20.2318 9.65086 20.1442 8.4451 19.8103 7.26999C19.1943 5.10254 17.812 3.28632 15.9002 2.11853L16.2683 1.45811C20.6746 4.13321 22.2146 9.85669 19.6842 14.3961Z" fill="black"/>
</svg>
