<svg width="40" height="40" viewBox="0 0 40 40" fill="none" xmlns="http://www.w3.org/2000/svg">
<g clip-path="url(#clip0_289_1448)">
<path d="M18.0405 2.39705V2.3965L10.4479 1.28025C8.66095 1.01744 7.05673 2.40275 7.05673 4.20931C7.05673 6.07549 8.76611 7.48681 10.6142 7.10861L18.1126 5.56486V5.56424C17.5086 4.58541 17.4992 3.3708 18.0405 2.39705ZM31.121 1.28025L23.5285 2.3965V2.39705C24.0688 3.369 24.0614 4.58369 23.4563 5.56424V5.56486L30.9548 7.10861C32.8047 7.4872 34.5122 6.07369 34.5122 4.20931C34.5121 2.40275 32.908 1.01744 31.121 1.28025ZM32.162 29.8054H38.4311V39.9999H32.162V29.8054Z" fill="#7210FF" fill-opacity="0.4"/>
<path d="M14.9012 22.7455H8.62562V14.9011H14.9012M31.3744 25.8833H39.2188M22.3533 6.63708V12.5478H19.2155V6.63708M4.70344 12.5478H8.62562V25.0988H4.70344V12.5478ZM25.1052 25.0988H16.4637C15.6007 25.0988 14.9012 24.3993 14.9012 23.5363V14.1103C14.9012 13.2473 15.6007 12.5478 16.4637 12.5478H25.1052C25.9682 12.5478 26.6677 13.2473 26.6677 14.1103V23.5363C26.6677 24.3993 25.9682 25.0988 25.1052 25.0988ZM0.78125 10.1945H4.70344V27.4522H0.78125V10.1945Z" stroke="#7210FF" stroke-miterlimit="10" stroke-linecap="round" stroke-linejoin="round"/>
<path d="M26.6677 14.9011H29.8055C35.0043 14.9011 39.2187 19.1156 39.2187 24.3144V29.8055H31.3744V25.0989C31.3744 23.7992 30.3208 22.7456 29.0211 22.7456H26.6678" stroke="#7210FF" stroke-miterlimit="10" stroke-linecap="round" stroke-linejoin="round"/>
<path d="M21.5055 6.97162C23.192 6.57338 24.2364 4.88332 23.8381 3.19678C23.4399 1.51024 21.7498 0.46587 20.0633 0.864117C18.3768 1.26236 17.3324 2.95242 17.7306 4.63896C18.1289 6.3255 19.8189 7.36987 21.5055 6.97162Z" stroke="#7210FF" stroke-miterlimit="10" stroke-linecap="round" stroke-linejoin="round"/>
</g>
<defs>
<clipPath id="clip0_289_1448">
<rect width="40" height="40" fill="white"/>
</clipPath>
</defs>
</svg>
