<svg width="36" height="36" viewBox="0 0 36 36" fill="none" xmlns="http://www.w3.org/2000/svg">
    <path d="M17.953 3c-8.28 0-15 6.72-15 15 0 8.28 6.72 15 15 15 8.28 0 15-6.72 15-15 0-8.28-6.705-15-15-15zm-1.875 19.545c0 .72-.3 1.005-1.064 1.005h-1.95c-.765 0-1.066-.285-1.066-1.005v-9.09c0-.72.3-1.005 1.066-1.005h1.934c.766 0 1.066.285 1.066 1.005v9.09h.014zm7.92 0c0 .72-.3 1.005-1.065 1.005H21c-.765 0-1.066-.285-1.066-1.005v-9.09c0-.72.3-1.005 1.066-1.005h1.934c.765 0 1.066.285 1.066 1.005v9.09z" fill="#fff"/>
</svg>
