<svg width="28" height="28" viewBox="0 0 28 28" fill="none" xmlns="http://www.w3.org/2000/svg">
<rect x="0.5" y="0.5" width="27" height="27" rx="3.5" />
<rect x="0.5" y="0.5" width="27" height="27" rx="3.5" stroke="#7210FF"/>
<path d="M11.875 22.6832C12.15 22.6832 12.4084 22.4998 12.4834 22.2165C12.575 21.8832 12.375 21.5415 12.0334 21.4498C8.65004 20.5582 6.29171 17.4915 6.29171 13.9915C6.29171 9.7415 9.75004 6.28317 14 6.28317C17.6084 6.28317 19.975 8.3915 21.0834 9.6665H18.6334C18.2917 9.6665 18.0084 9.94984 18.0084 10.2915C18.0084 10.6332 18.2834 10.9248 18.6334 10.9248H22.325C22.3667 10.9248 22.4417 10.9165 22.5 10.8998C22.575 10.8748 22.6417 10.8415 22.7 10.7998C22.775 10.7498 22.8334 10.6832 22.875 10.6082C22.9167 10.5332 22.95 10.4415 22.9584 10.3498C22.9584 10.3248 22.9584 10.3082 22.9584 10.2832V6.49984C22.9584 6.15817 22.675 5.87484 22.3334 5.87484C21.9917 5.87484 21.7084 6.15817 21.7084 6.49984V8.4915C20.35 7.03317 17.7917 5.0415 14 5.0415C9.05837 5.0415 5.04171 9.05817 5.04171 13.9998C5.04171 18.0665 7.78337 21.6332 11.7167 22.6665C11.7667 22.6748 11.825 22.6832 11.875 22.6832Z" fill="#7210FF"/>
<path d="M14.5917 22.9417C14.6084 22.9417 14.625 22.9333 14.6334 22.9333C15.5334 22.875 16.4167 22.675 17.25 22.35C17.4917 22.2583 17.6584 22.0167 17.65 21.7583C17.65 21.6833 17.6334 21.6083 17.6084 21.5417C17.4834 21.225 17.1084 21.0667 16.8 21.1833C16.075 21.4667 15.3167 21.6333 14.55 21.6917C14.225 21.7083 13.9667 21.9917 13.9667 22.325L13.975 22.3583C13.9917 22.6833 14.2667 22.9417 14.5917 22.9417ZM19.1834 21.15C19.325 21.15 19.4584 21.1 19.575 21.0167C20.275 20.45 20.8917 19.7917 21.3917 19.0583C21.4667 18.95 21.5084 18.8333 21.5084 18.7083C21.5084 18.5 21.4084 18.3083 21.2334 18.1917C20.9584 18 20.5584 18.075 20.3667 18.3417C20.3667 18.35 20.3667 18.35 20.3667 18.35C20.3584 18.3583 20.35 18.375 20.3417 18.3833C19.9084 19.0083 19.3834 19.5667 18.7917 20.0333C18.65 20.15 18.5584 20.325 18.5584 20.5167C18.5584 20.6583 18.6 20.8 18.6917 20.9167C18.8167 21.0667 18.9917 21.15 19.1834 21.15ZM21.9667 17.0833C22.2417 17.0833 22.4834 16.9083 22.5584 16.65C22.825 15.7917 22.9584 14.9 22.9584 14V13.9917C22.95 13.65 22.675 13.375 22.3334 13.375C21.9917 13.375 21.7084 13.6583 21.7084 14C21.7084 14.7833 21.5917 15.55 21.3667 16.275C21.35 16.3417 21.3417 16.4 21.3417 16.4667C21.3417 16.7333 21.5167 16.975 21.7834 17.0583C21.8417 17.075 21.9 17.0833 21.9667 17.0833Z" fill="#7210FF"/>
</svg>
