<svg width="20" height="20" viewBox="0 0 20 20" fill="none" xmlns="http://www.w3.org/2000/svg">
<path d="M10.7333 17.3834H5.67499C2.71666 17.3834 1.66666 15.3084 1.66666 13.375V6.62503C1.66666 3.7417 2.79166 2.6167 5.67499 2.6167H10.7333C13.6167 2.6167 14.7417 3.7417 14.7417 6.62503V13.375C14.7417 16.2584 13.6167 17.3834 10.7333 17.3834ZM5.67499 3.88337C3.49999 3.88337 2.93332 4.45003 2.93332 6.62503V13.375C2.93332 14.4 3.29166 16.1167 5.67499 16.1167H10.7333C12.9083 16.1167 13.475 15.55 13.475 13.375V6.62503C13.475 4.45003 12.9083 3.88337 10.7333 3.88337H5.67499Z" fill="#989898"/>
<path d="M17.3167 15.0901C16.9583 15.0901 16.5 14.9734 15.975 14.6068L13.75 13.0485C13.6672 12.9902 13.5997 12.9128 13.5533 12.8228C13.5069 12.7329 13.4829 12.633 13.4833 12.5318V7.46512C13.4833 7.25678 13.5833 7.06512 13.75 6.94845L15.975 5.39012C16.9667 4.69845 17.6917 4.89845 18.0333 5.07345C18.375 5.25678 18.9583 5.73178 18.9583 6.94012V13.0485C18.9583 14.2568 18.375 14.7401 18.0333 14.9151C17.875 15.0068 17.625 15.0901 17.3167 15.0901ZM14.7417 12.1984L16.7 13.5651C17.075 13.8235 17.3417 13.8485 17.45 13.7901C17.5667 13.7318 17.6917 13.4985 17.6917 13.0485V6.94845C17.6917 6.49012 17.5583 6.26512 17.45 6.20678C17.3417 6.14845 17.075 6.17345 16.7 6.43178L14.7417 7.79845V12.1984ZM9.58334 9.79178C8.55001 9.79178 7.70834 8.95012 7.70834 7.91678C7.70834 6.88345 8.55001 6.04178 9.58334 6.04178C10.6167 6.04178 11.4583 6.88345 11.4583 7.91678C11.4583 8.95012 10.6167 9.79178 9.58334 9.79178ZM9.58334 7.29178C9.24168 7.29178 8.95834 7.57512 8.95834 7.91678C8.95834 8.25845 9.24168 8.54178 9.58334 8.54178C9.92501 8.54178 10.2083 8.25845 10.2083 7.91678C10.2083 7.57512 9.92501 7.29178 9.58334 7.29178Z" fill="#989898"/>
</svg>
