<svg width="28" height="28" viewBox="0 0 28 28" fill="none" xmlns="http://www.w3.org/2000/svg">
<path d="M8.04998 24.0333C9.79998 25.0833 11.9 25.6666 14 25.6666C20.4166 25.6666 25.6666 20.4166 25.6666 13.9999C25.6666 7.58325 20.4166 2.33325 14 2.33325C7.58331 2.33325 2.33331 7.58325 2.33331 13.9999C2.33331 16.0999 2.91665 18.0833 3.84998 19.8333L2.84665 23.6903C2.79488 23.8894 2.79669 24.0986 2.85189 24.2968C2.90709 24.495 3.01372 24.6751 3.16096 24.8188C3.3082 24.9624 3.49082 25.0646 3.6903 25.115C3.88978 25.1653 4.09902 25.162 4.29681 25.1054L8.04998 24.0333Z" stroke="white" stroke-width="1.5" stroke-miterlimit="10" stroke-linecap="round" stroke-linejoin="round"/>
<path d="M19.25 17.3227C19.25 17.5117 19.208 17.7065 19.1182 17.8955C19.0265 18.0908 18.9062 18.2713 18.7612 18.431C18.5033 18.7145 18.2198 18.9187 17.8978 19.0505C17.5828 19.1823 17.241 19.25 16.8735 19.25C16.3368 19.25 15.764 19.124 15.1585 18.8673C14.5184 18.5898 13.9117 18.2407 13.3502 17.8267C12.7394 17.3805 12.163 16.8891 11.6258 16.3567C11.0944 15.8225 10.6041 15.2488 10.1593 14.6405C9.75056 14.0838 9.40467 13.4836 9.128 12.8508C8.876 12.25 8.75 11.6783 8.75 11.1335C8.75 10.7765 8.813 10.4358 8.939 10.1208C9.065 9.8 9.26567 9.506 9.5445 9.2435C9.8805 8.91217 10.248 8.75 10.6377 8.75C10.7847 8.75 10.9317 8.7815 11.0635 8.8445C11.2 8.9075 11.3202 9.002 11.4158 9.1385L12.6362 10.8558C12.7295 10.9865 12.7995 11.1078 12.8462 11.2233C12.8928 11.333 12.9197 11.4438 12.9197 11.543C12.9182 11.6753 12.8798 11.8046 12.8088 11.9163C12.7278 12.0529 12.629 12.1781 12.5148 12.2885L12.1147 12.7038C12.0868 12.7311 12.065 12.7638 12.0505 12.8C12.0361 12.8361 12.0293 12.8749 12.0307 12.9138C12.0307 12.9547 12.0365 12.992 12.047 13.034C12.0622 13.076 12.0785 13.1075 12.089 13.139C12.1823 13.3128 12.3457 13.538 12.5778 13.811C12.8147 14.084 13.0667 14.3628 13.3397 14.6405C13.6243 14.9193 13.8973 15.176 14.1762 15.4128C14.4492 15.6427 14.6755 15.8002 14.854 15.8947L14.9497 15.9378C14.9916 15.9528 15.0359 15.9599 15.0803 15.9588C15.1206 15.9597 15.1606 15.9522 15.1977 15.9367C15.2349 15.9212 15.2684 15.8982 15.2962 15.869L15.6952 15.4747C15.827 15.344 15.953 15.2448 16.0743 15.1807C16.1859 15.1096 16.3154 15.0715 16.4477 15.071C16.5581 15.0726 16.6671 15.096 16.7685 15.1398C16.884 15.1865 17.0053 15.2542 17.136 15.344L18.8767 16.5783C19.0028 16.6604 19.1031 16.7765 19.166 16.9132C19.2205 17.0429 19.2491 17.182 19.25 17.3227Z" stroke="white" stroke-width="1.5" stroke-miterlimit="10"/>
</svg>
